<svg width="153" height="67" viewBox="0 0 153 67" fill="none" xmlns="http://www.w3.org/2000/svg">
<path d="M0.00917053 56.1903L152.723 56.0335L139.83 66.8565L12.397 66.8635L0.00917053 56.1903Z" fill="#011638"/>
<path d="M152.675 56.0302L0.0163874 56.1957L12.8997 41.0501L140.286 41.0853L152.675 56.0302Z" fill="white"/>
<path d="M65.8335 30.014H87.1365L94.985 42.0213H57.985L65.8335 30.014Z" fill="white"/>
<path d="M87.1427 31.0614L65.8564 31.1883L57.9365 18.2157L94.9074 17.9952L87.1427 31.0614Z" fill="white"/>
<line x1="127.985" y1="42.0213" x2="127.985" y2="19.0073" stroke="white" stroke-width="2"/>
<line x1="125.985" y1="20.5085" x2="129.985" y2="20.5085" stroke="white"/>
<line x1="75.985" y1="19.0073" x2="75.985" y2="7.00002" stroke="white" stroke-width="2"/>
<line x1="70.985" y1="12.5037" x2="80.985" y2="12.5037" stroke="white"/>
<line x1="71.985" y1="9.50183" x2="79.985" y2="9.50183" stroke="white"/>
<line x1="24.985" y1="42.0213" x2="24.985" y2="19.0073" stroke="white" stroke-width="2"/>
<line x1="22.985" y1="20.5085" x2="26.985" y2="20.5085" stroke="white"/>
<g opacity="0.8">
<path d="M70.1291 27.0122H67.4097C66.7636 27.0122 66.235 26.5072 66.235 25.89V22.1307C66.235 21.5135 66.7636 21.0085 67.4097 21.0085H70.1291C70.7752 21.0085 71.3038 21.5135 71.3038 22.1307V25.89C71.3038 26.5128 70.781 27.0122 70.1291 27.0122Z" fill="#011638"/>
<path d="M77.4697 27.0122H74.7503C74.1042 27.0122 73.5756 26.5072 73.5756 25.89V22.1307C73.5756 21.5135 74.1042 21.0085 74.7503 21.0085H77.4697C78.1158 21.0085 78.6444 21.5135 78.6444 22.1307V25.89C78.6444 26.5128 78.1217 27.0122 77.4697 27.0122Z" fill="#011638"/>
<path d="M84.8103 27.0122H82.0909C81.4448 27.0122 80.9162 26.5072 80.9162 25.89V22.1307C80.9162 21.5135 81.4448 21.0085 82.0909 21.0085H84.8103C85.4564 21.0085 85.985 21.5135 85.985 22.1307V25.89C85.985 26.5128 85.4622 27.0122 84.8103 27.0122Z" fill="#011638"/>
</g>
<g opacity="0.8">
<path d="M106.506 53.028H102.65C101.734 53.028 100.985 52.2705 100.985 51.3447V45.7058C100.985 44.78 101.734 44.0225 102.65 44.0225H106.506C107.422 44.0225 108.171 44.78 108.171 45.7058V51.3447C108.171 52.2789 107.43 53.028 106.506 53.028Z" fill="#011638"/>
<path d="M116.913 53.028H113.057C112.141 53.028 111.392 52.2705 111.392 51.3447V45.7058C111.392 44.78 112.141 44.0225 113.057 44.0225H116.913C117.829 44.0225 118.578 44.78 118.578 45.7058V51.3447C118.578 52.2789 117.837 53.028 116.913 53.028Z" fill="#011638"/>
<path d="M127.32 53.028H123.464C122.548 53.028 121.799 52.2705 121.799 51.3447V45.7058C121.799 44.78 122.548 44.0225 123.464 44.0225H127.32C128.236 44.0225 128.985 44.78 128.985 45.7058V51.3447C128.985 52.2789 128.244 53.028 127.32 53.028Z" fill="#011638"/>
</g>
<g opacity="0.8">
<path d="M29.5057 53.028H25.6504C24.7344 53.028 23.985 52.2705 23.985 51.3447V45.7058C23.985 44.78 24.7344 44.0225 25.6504 44.0225H29.5057C30.4217 44.0225 31.1711 44.78 31.1711 45.7058V51.3447C31.1711 52.2789 30.43 53.028 29.5057 53.028Z" fill="#011638"/>
<path d="M39.9127 53.028H36.0573C35.1413 53.028 34.3919 52.2705 34.3919 51.3447V45.7058C34.3919 44.78 35.1413 44.0225 36.0573 44.0225H39.9127C40.8286 44.0225 41.578 44.78 41.578 45.7058V51.3447C41.578 52.2789 40.8369 53.028 39.9127 53.028Z" fill="#011638"/>
<path d="M50.3196 53.028H46.4643C45.5483 53.028 44.7989 52.2705 44.7989 51.3447V45.7058C44.7989 44.78 45.5483 44.0225 46.4643 44.0225H50.3196C51.2356 44.0225 51.985 44.78 51.985 45.7058V51.3447C51.985 52.2789 51.2439 53.028 50.3196 53.028Z" fill="#011638"/>
</g>
<g clip-path="url(#clip0_127_70)">
<path d="M76.4815 33.0193C82.2806 33.0193 86.9815 37.4879 86.9815 43.0004C86.9815 48.513 82.2806 52.9815 76.4815 52.9815C70.6823 52.9815 65.9815 48.513 65.9815 43.0004C65.9815 37.4879 70.6823 33.0193 76.4815 33.0193ZM76.4815 35.0156C74.2537 35.0156 72.1171 35.8568 70.5418 37.3543C68.9665 38.8517 68.0815 40.8827 68.0815 43.0004C68.0815 45.1181 68.9665 47.1491 70.5418 48.6466C72.1171 50.144 74.2537 50.9853 76.4815 50.9853C78.7093 50.9853 80.8459 50.144 82.4212 48.6466C83.9965 47.1491 84.8815 45.1181 84.8815 43.0004C84.8815 40.8827 83.9965 38.8517 82.4212 37.3543C80.8459 35.8568 78.7093 35.0156 76.4815 35.0156ZM76.4815 37.0118C76.7387 37.0118 76.9869 37.1016 77.1791 37.264C77.3713 37.4265 77.4941 37.6503 77.5241 37.8931L77.5315 38.0099V42.5872L80.3738 45.2891C80.5622 45.4687 80.6715 45.7097 80.6796 45.9632C80.6878 46.2167 80.5941 46.4636 80.4177 46.6538C80.2412 46.844 79.9953 46.9632 79.7297 46.9873C79.4641 47.0113 79.1989 46.9384 78.9878 46.7832L78.8891 46.7004L75.7391 43.7061C75.5759 43.5508 75.4711 43.3488 75.4409 43.1312L75.4315 43.0004V38.0099C75.4315 37.7452 75.5421 37.4913 75.739 37.3041C75.9359 37.1169 76.203 37.0118 76.4815 37.0118Z" fill="#011638"/>
</g>
<defs>
<clipPath id="clip0_127_70">
<rect width="23" height="23.014" fill="white" transform="translate(63.9815 32.0187)"/>
</clipPath>
</defs>
</svg>
