<svg width="985" height="576" viewBox="0 0 985 576" fill="none" xmlns="http://www.w3.org/2000/svg">
<path d="M43 449C43 390.039 54.6156 331.652 77.1808 277.178C99.7459 222.7 132.819 173.202 174.509 131.509C216.202 89.8194 265.7 56.7459 320.178 34.1808C374.652 11.6156 433.039 -1.7627e-06 492 -1.7627e-06C550.965 -1.7627e-06 609.35 11.6156 663.825 34.1808C718.3 56.7459 767.798 89.8194 809.491 131.509C851.185 173.202 884.258 222.7 906.822 277.178C929.386 331.652 941 390.039 941 449L492 449H43Z" fill="#334661"/>
<path d="M906 449C906 338.935 862.437 233.378 784.889 155.551C707.342 77.7232 602.167 34 492.5 34C382.833 34 277.658 77.7232 200.111 155.55C122.565 233.378 79 338.935 79 449H492.5H906Z" fill="#92D3F5"/>
<path opacity="0.8" d="M173 316.663L815 316L760.799 361.97L225.078 362L173 316.663Z" fill="#011638"/>
<path d="M815 316.298L173 317L227.18 253L762.899 253.148L815 316.298Z" fill="white"/>
<path d="M449.877 207H539.123L572 257H417L449.877 207Z" fill="white"/>
<path d="M539.449 211.461L450.202 212L417 156.936L572 156L539.449 211.461Z" fill="white"/>
<path d="M711 257V161" stroke="white" stroke-width="2"/>
<path d="M703 167H719" stroke="white"/>
<path d="M492 161V110" stroke="white" stroke-width="2"/>
<path d="M471 133H513" stroke="white"/>
<path d="M476 121H509" stroke="white"/>
<path d="M278 257V161" stroke="white" stroke-width="2"/>
<path d="M270 167H286" stroke="white"/>
<g opacity="0.8">
<path d="M467.78 194.173H456.349C453.634 194.173 451.41 192.052 451.41 189.459V173.664C451.41 171.071 453.634 168.95 456.349 168.95H467.78C470.496 168.95 472.719 171.071 472.719 173.664V189.459C472.719 192.075 470.521 194.173 467.78 194.173Z" fill="#011638"/>
<path d="M498.641 194.173H487.206C484.491 194.173 482.271 192.052 482.271 189.459V173.664C482.271 171.071 484.491 168.95 487.206 168.95H498.641C501.357 168.95 503.577 171.071 503.577 173.664V189.459C503.577 192.075 501.382 194.173 498.641 194.173Z" fill="#011638"/>
<path d="M529.498 194.173H518.067C515.352 194.173 513.128 192.052 513.128 189.459V173.664C513.128 171.071 515.352 168.95 518.067 168.95H529.498C532.214 168.95 534.438 171.071 534.438 173.664V189.459C534.438 192.075 532.239 194.173 529.498 194.173Z" fill="#011638"/>
</g>
<g opacity="0.8">
<path d="M620.707 303.476H604.496C600.645 303.476 597.497 300.293 597.497 296.404V272.712C597.497 268.823 600.645 265.64 604.496 265.64H620.707C624.557 265.64 627.706 268.823 627.706 272.712V296.404C627.706 300.327 624.591 303.476 620.707 303.476Z" fill="#011638"/>
<path d="M664.457 303.476H648.247C644.396 303.476 641.247 300.293 641.247 296.404V272.712C641.247 268.823 644.396 265.64 648.247 265.64H664.457C668.308 265.64 671.457 268.823 671.457 272.712V296.404C671.457 300.327 668.342 303.476 664.457 303.476Z" fill="#011638"/>
<path d="M708.208 303.476H691.997C688.146 303.476 684.998 300.293 684.998 296.404V272.712C684.998 268.823 688.146 265.64 691.997 265.64H708.208C712.058 265.64 715.207 268.823 715.207 272.712V296.404C715.207 300.327 712.092 303.476 708.208 303.476Z" fill="#011638"/>
</g>
<g opacity="0.8">
<path d="M297.002 303.476H280.794C276.943 303.476 273.793 300.293 273.793 296.404V272.712C273.793 268.823 276.943 265.64 280.794 265.64H297.002C300.853 265.64 304.003 268.823 304.003 272.712V296.404C304.003 300.327 300.887 303.476 297.002 303.476Z" fill="#011638"/>
<path d="M340.752 303.476H324.544C320.694 303.476 317.543 300.293 317.543 296.404V272.712C317.543 268.823 320.694 265.64 324.544 265.64H340.752C344.603 265.64 347.753 268.823 347.753 272.712V296.404C347.753 300.327 344.638 303.476 340.752 303.476Z" fill="#011638"/>
<path d="M384.502 303.476H368.295C364.444 303.476 361.294 300.293 361.294 296.404V272.712C361.294 268.823 364.444 265.64 368.295 265.64H384.502C388.353 265.64 391.504 268.823 391.504 272.712V296.404C391.504 300.327 388.388 303.476 384.502 303.476Z" fill="#011638"/>
</g>
<path d="M494.5 216C519.077 216 539 234.803 539 258C539 281.197 519.077 300 494.5 300C469.923 300 450 281.197 450 258C450 234.803 469.923 216 494.5 216ZM494.5 224.4C485.058 224.4 476.005 227.94 469.326 234.241C462.651 240.542 458.9 249.089 458.9 258C458.9 266.911 462.651 275.458 469.326 281.759C476.005 288.06 485.058 291.6 494.5 291.6C503.942 291.6 512.995 288.06 519.674 281.759C526.349 275.458 530.1 266.911 530.1 258C530.1 249.089 526.349 240.542 519.674 234.241C512.995 227.94 503.942 224.4 494.5 224.4ZM494.5 232.8C495.589 232.8 496.64 233.178 497.458 233.861C498.272 234.545 498.793 235.487 498.92 236.509L498.95 237V256.261L510.995 267.631C511.796 268.387 512.258 269.4 512.292 270.467C512.325 271.534 511.931 272.573 511.181 273.373C510.435 274.173 509.393 274.675 508.265 274.776C507.142 274.877 506.015 274.571 505.121 273.918L504.705 273.569L491.355 260.969C490.66 260.316 490.22 259.466 490.088 258.55L490.05 258V237C490.05 235.886 490.52 234.818 491.355 234.03C492.186 233.243 493.322 232.8 494.5 232.8Z" fill="#011638" fill-opacity="0.8"/>
<rect y="362" width="985" height="214" rx="20" fill="#334661"/>
<path d="M173.332 518V420.65H199.732C207.032 420.65 212.682 421.75 216.682 423.95C220.682 426.05 223.332 429.45 224.632 434.15C225.232 436.15 225.632 438.6 225.832 441.5C226.032 444.4 226.132 447.15 226.132 449.75C226.132 452.35 226.132 454.25 226.132 455.45C226.132 459.45 225.932 463.3 225.532 467C225.132 470.7 223.982 473.95 222.082 476.75C220.182 479.45 216.982 481.45 212.482 482.75L226.282 518H208.282L195.082 484.4H190.132V518H173.332ZM190.132 468.65C194.732 468.65 198.332 468.55 200.932 468.35C203.632 468.15 205.582 467.65 206.782 466.85C207.982 465.95 208.732 464.6 209.032 462.8C209.332 460.9 209.482 458.25 209.482 454.85C209.482 453.95 209.482 452.45 209.482 450.35C209.482 448.25 209.332 446.1 209.032 443.9C208.732 441.6 208.082 439.9 207.082 438.8C205.482 437.2 203.032 436.4 199.732 436.4H190.132V468.65ZM249.555 518V420.65H296.955V436.4H266.355V459.05H287.955V474.95H266.355V502.1H296.955V518H249.555ZM320.959 518V420.65H337.759V458.3C341.659 455.6 344.859 452.25 347.359 448.25C349.859 444.25 351.859 439.9 353.359 435.2C354.859 430.4 356.059 425.55 356.959 420.65H373.609C372.709 426.45 371.359 432.35 369.559 438.35C367.859 444.25 365.459 449.85 362.359 455.15C359.259 460.45 355.209 465.15 350.209 469.25C355.109 473.35 359.109 478.05 362.209 483.35C365.309 488.55 367.759 494.1 369.559 500C371.359 505.9 372.709 511.9 373.609 518H356.959C356.159 513.5 354.959 508.85 353.359 504.05C351.859 499.25 349.859 494.75 347.359 490.55C344.859 486.35 341.659 482.9 337.759 480.2V518H320.959ZM396.457 518V420.65H413.257V458.3C417.157 455.6 420.357 452.25 422.857 448.25C425.357 444.25 427.357 439.9 428.857 435.2C430.357 430.4 431.557 425.55 432.457 420.65H449.107C448.207 426.45 446.857 432.35 445.057 438.35C443.357 444.25 440.957 449.85 437.857 455.15C434.757 460.45 430.707 465.15 425.707 469.25C430.607 473.35 434.607 478.05 437.707 483.35C440.807 488.55 443.257 494.1 445.057 500C446.857 505.9 448.207 511.9 449.107 518H432.457C431.657 513.5 430.457 508.85 428.857 504.05C427.357 499.25 425.357 494.75 422.857 490.55C420.357 486.35 417.157 482.9 413.257 480.2V518H396.457ZM471.805 518V420.65H519.205V436.4H488.605V459.05H510.205V474.95H488.605V518H471.805ZM542.172 518V420.65H589.572V436.4H558.972V459.05H580.572V474.95H558.972V502.1H589.572V518H542.172ZM613.576 518V420.65H639.976C647.276 420.65 652.926 421.75 656.926 423.95C660.926 426.05 663.576 429.45 664.876 434.15C665.476 436.15 665.876 438.6 666.076 441.5C666.276 444.4 666.376 447.15 666.376 449.75C666.376 452.35 666.376 454.25 666.376 455.45C666.376 459.45 666.176 463.3 665.776 467C665.376 470.7 664.226 473.95 662.326 476.75C660.426 479.45 657.226 481.45 652.726 482.75L666.526 518H648.526L635.326 484.4H630.376V518H613.576ZM630.376 468.65C634.976 468.65 638.576 468.55 641.176 468.35C643.876 468.15 645.826 467.65 647.026 466.85C648.226 465.95 648.976 464.6 649.276 462.8C649.576 460.9 649.726 458.25 649.726 454.85C649.726 453.95 649.726 452.45 649.726 450.35C649.726 448.25 649.576 446.1 649.276 443.9C648.976 441.6 648.326 439.9 647.326 438.8C645.726 437.2 643.276 436.4 639.976 436.4H630.376V468.65ZM715.299 518C705.599 518 698.799 516.15 694.899 512.45C690.999 508.65 689.049 502.25 689.049 493.25V445.25C689.049 436.35 690.999 430.05 694.899 426.35C698.799 422.55 705.599 420.65 715.299 420.65C725.099 420.65 731.899 422.65 735.699 426.65C739.599 430.55 741.549 437 741.549 446H724.299L723.999 441.95C723.699 439.75 723.349 438.3 722.949 437.6C722.649 436.8 721.649 436.4 719.949 436.4H715.299C711.799 436.4 709.299 436.85 707.799 437.75C706.399 438.65 705.699 441.15 705.699 445.25V493.25C705.699 495.95 706.049 497.9 706.749 499.1C707.449 500.3 708.599 501.05 710.199 501.35C711.799 501.65 713.949 501.9 716.649 502.1H717.399C720.599 502.1 722.599 501 723.399 498.8C724.299 496.5 724.749 492.9 724.749 488V479.6H710.949V463.7H741.549V481.25C741.549 487.25 741.299 492.55 740.799 497.15C740.299 501.75 739.199 505.6 737.499 508.7C735.799 511.7 733.149 514 729.549 515.6C726.049 517.2 721.299 518 715.299 518ZM762.001 518V497.15C762.001 487.85 762.401 478.95 763.201 470.45C764.101 461.85 766.001 453.45 768.901 445.25C771.901 437.05 776.501 428.85 782.701 420.65H793.501C799.801 428.75 804.451 437 807.451 445.4C810.451 453.7 812.351 462.15 813.151 470.75C814.051 479.35 814.501 488.15 814.501 497.15V518H797.701V498.8H778.651V518H762.001ZM778.651 483.05H797.551C797.151 476.05 796.201 469.05 794.701 462.05C793.201 455.05 791.001 448.5 788.101 442.4C785.101 448.7 782.851 455.3 781.351 462.2C779.851 469.1 778.951 476.05 778.651 483.05Z" fill="white"/>
</svg>
