<svg width="229" height="229" viewBox="0 0 229 229" fill="none" xmlns="http://www.w3.org/2000/svg">
<circle opacity="0.8" cx="114.5" cy="114.5" r="114.5" fill="#011638"/>
<path d="M217 115.5C217 88.3153 206.254 62.244 187.125 43.0216C167.996 23.7991 142.052 13 115 13C87.9479 13 62.0038 23.7991 42.8751 43.0215C23.7464 62.244 13 88.3153 13 115.5L115 115.5H217Z" fill="#92D3F5"/>
<path d="M216.556 114.778C216.556 128.143 213.923 141.378 208.808 153.726C203.693 166.075 196.196 177.295 186.746 186.746C177.295 196.196 166.075 203.693 153.726 208.808C141.378 213.923 128.143 216.556 114.778 216.556C101.412 216.556 88.1774 213.923 75.8291 208.808C63.4809 203.693 52.261 196.196 42.81 186.746C33.3591 177.295 25.8622 166.075 20.7474 153.726C15.6326 141.378 13 128.143 13 114.778L114.778 114.778H216.556Z" fill="#1AA5E8"/>
<path opacity="0.8" d="M38.0242 104.16L190.738 104.004L177.845 114.82L50.412 114.827L38.0242 104.16Z" fill="#011638"/>
<path d="M190.69 104L38.0314 104.166L50.9147 89.0294L178.301 89.0645L190.69 104Z" fill="white"/>
<path d="M103.848 78H125.152L133 90H96L103.848 78Z" fill="white"/>
<path d="M125.158 79.0467L103.871 79.1736L95.9516 66.2089L132.922 65.9885L125.158 79.0467Z" fill="white"/>
<line x1="166" y1="90" x2="166" y2="67" stroke="white" stroke-width="2"/>
<line x1="164" y1="68.5" x2="168" y2="68.5" stroke="white"/>
<line x1="114" y1="67" x2="114" y2="55" stroke="white" stroke-width="2"/>
<line x1="109" y1="60.5" x2="119" y2="60.5" stroke="white"/>
<line x1="110" y1="57.5" x2="118" y2="57.5" stroke="white"/>
<line x1="63" y1="90" x2="63" y2="67" stroke="white" stroke-width="2"/>
<line x1="61" y1="68.5" x2="65" y2="68.5" stroke="white"/>
<g opacity="0.8">
<path d="M108.144 75H105.425C104.779 75 104.25 74.4953 104.25 73.8785V70.1215C104.25 69.5047 104.779 69 105.425 69H108.144C108.79 69 109.319 69.5047 109.319 70.1215V73.8785C109.319 74.5009 108.796 75 108.144 75Z" fill="#011638"/>
<path d="M115.485 75H112.765C112.119 75 111.591 74.4953 111.591 73.8785V70.1215C111.591 69.5047 112.119 69 112.765 69H115.485C116.131 69 116.659 69.5047 116.659 70.1215V73.8785C116.659 74.5009 116.137 75 115.485 75Z" fill="#011638"/>
<path d="M122.825 75H120.106C119.46 75 118.931 74.4953 118.931 73.8785V70.1215C118.931 69.5047 119.46 69 120.106 69H122.825C123.471 69 124 69.5047 124 70.1215V73.8785C124 74.5009 123.477 75 122.825 75Z" fill="#011638"/>
</g>
<g opacity="0.8">
<path d="M144.521 101H140.665C139.749 101 139 100.243 139 99.3178V93.6822C139 92.757 139.749 92 140.665 92H144.521C145.437 92 146.186 92.757 146.186 93.6822V99.3178C146.186 100.251 145.445 101 144.521 101Z" fill="#011638"/>
<path d="M154.928 101H151.072C150.156 101 149.407 100.243 149.407 99.3178V93.6822C149.407 92.757 150.156 92 151.072 92H154.928C155.844 92 156.593 92.757 156.593 93.6822V99.3178C156.593 100.251 155.852 101 154.928 101Z" fill="#011638"/>
<path d="M165.335 101H161.479C160.563 101 159.814 100.243 159.814 99.3178V93.6822C159.814 92.757 160.563 92 161.479 92H165.335C166.251 92 167 92.757 167 93.6822V99.3178C167 100.251 166.259 101 165.335 101Z" fill="#011638"/>
</g>
<g opacity="0.8">
<path d="M67.5207 101H63.6654C62.7494 101 62 100.243 62 99.3178V93.6822C62 92.757 62.7494 92 63.6654 92H67.5207C68.4367 92 69.1861 92.757 69.1861 93.6822V99.3178C69.1861 100.251 68.445 101 67.5207 101Z" fill="#011638"/>
<path d="M77.9277 101H74.0723C73.1564 101 72.4069 100.243 72.4069 99.3178V93.6822C72.4069 92.757 73.1564 92 74.0723 92H77.9277C78.8436 92 79.5931 92.757 79.5931 93.6822V99.3178C79.5931 100.251 78.852 101 77.9277 101Z" fill="#011638"/>
<path d="M88.3346 101H84.4793C83.5633 101 82.8139 100.243 82.8139 99.3178V93.6822C82.8139 92.757 83.5633 92 84.4793 92H88.3346C89.2506 92 90 92.757 90 93.6822V99.3178C90 100.251 89.2589 101 88.3346 101Z" fill="#011638"/>
</g>
<path d="M114.5 81C120.299 81 125 85.4658 125 90.975C125 96.4842 120.299 100.95 114.5 100.95C108.701 100.95 104 96.4842 104 90.975C104 85.4658 108.701 81 114.5 81ZM114.5 82.995C112.272 82.995 110.136 83.8357 108.56 85.3323C106.985 86.8288 106.1 88.8586 106.1 90.975C106.1 93.0914 106.985 95.1212 108.56 96.6177C110.136 98.1143 112.272 98.955 114.5 98.955C116.728 98.955 118.864 98.1143 120.44 96.6177C122.015 95.1212 122.9 93.0914 122.9 90.975C122.9 88.8586 122.015 86.8288 120.44 85.3323C118.864 83.8357 116.728 82.995 114.5 82.995ZM114.5 84.99C114.757 84.99 115.005 85.0797 115.198 85.2421C115.39 85.4044 115.513 85.6281 115.543 85.8708L115.55 85.9875V90.562L118.392 93.2623C118.581 93.4418 118.69 93.6826 118.698 93.936C118.706 94.1893 118.613 94.436 118.436 94.6261C118.26 94.8162 118.014 94.9354 117.748 94.9594C117.483 94.9834 117.217 94.9105 117.006 94.7555L116.908 94.6727L113.758 91.6802C113.594 91.5251 113.49 91.3231 113.459 91.1057L113.45 90.975V85.9875C113.45 85.7229 113.561 85.4692 113.758 85.2822C113.954 85.0951 114.222 84.99 114.5 84.99Z" fill="#011638" fill-opacity="0.8"/>
<path d="M54.476 128.8H60.344C62.384 128.8 63.872 129.28 64.808 130.24C65.744 131.176 66.212 132.628 66.212 134.596V136.144C66.212 138.76 65.348 140.416 63.62 141.112V141.184C64.58 141.472 65.252 142.06 65.636 142.948C66.044 143.836 66.248 145.024 66.248 146.512V150.94C66.248 151.66 66.272 152.248 66.32 152.704C66.368 153.136 66.488 153.568 66.68 154H62.648C62.504 153.592 62.408 153.208 62.36 152.848C62.312 152.488 62.288 151.84 62.288 150.904V146.296C62.288 145.144 62.096 144.34 61.712 143.884C61.352 143.428 60.716 143.2 59.804 143.2H58.436V154H54.476V128.8ZM59.876 139.6C60.668 139.6 61.256 139.396 61.64 138.988C62.048 138.58 62.252 137.896 62.252 136.936V134.992C62.252 134.08 62.084 133.42 61.748 133.012C61.436 132.604 60.932 132.4 60.236 132.4H58.436V139.6H59.876ZM68.9955 128.8H79.7955V132.4H72.9555V139.06H78.3915V142.66H72.9555V150.4H79.7955V154H68.9955V128.8ZM82.0737 128.8H86.0337V139.42L91.0737 128.8H95.0337L90.3177 138.052L95.1057 154H90.9657L87.6177 142.768L86.0337 145.972V154H82.0737V128.8ZM96.9799 128.8H100.94V139.42L105.98 128.8H109.94L105.224 138.052L110.012 154H105.872L102.524 142.768L100.94 145.972V154H96.9799V128.8ZM111.886 128.8H122.362V132.4H115.846V139.42H120.958V143.02H115.846V154H111.886V128.8ZM124.261 128.8H135.061V132.4H128.221V139.06H133.657V142.66H128.221V150.4H135.061V154H124.261V128.8ZM137.339 128.8H143.207C145.247 128.8 146.735 129.28 147.671 130.24C148.607 131.176 149.075 132.628 149.075 134.596V136.144C149.075 138.76 148.211 140.416 146.483 141.112V141.184C147.443 141.472 148.115 142.06 148.499 142.948C148.907 143.836 149.111 145.024 149.111 146.512V150.94C149.111 151.66 149.135 152.248 149.183 152.704C149.231 153.136 149.351 153.568 149.543 154H145.511C145.367 153.592 145.271 153.208 145.223 152.848C145.175 152.488 145.151 151.84 145.151 150.904V146.296C145.151 145.144 144.959 144.34 144.575 143.884C144.215 143.428 143.579 143.2 142.667 143.2H141.299V154H137.339V128.8ZM142.739 139.6C143.531 139.6 144.119 139.396 144.503 138.988C144.911 138.58 145.115 137.896 145.115 136.936V134.992C145.115 134.08 144.947 133.42 144.611 133.012C144.299 132.604 143.795 132.4 143.099 132.4H141.299V139.6H142.739ZM157.475 154.36C155.555 154.36 154.091 153.82 153.083 152.74C152.075 151.636 151.571 150.064 151.571 148.024V134.776C151.571 132.736 152.075 131.176 153.083 130.096C154.091 128.992 155.555 128.44 157.475 128.44C159.395 128.44 160.859 128.992 161.867 130.096C162.875 131.176 163.379 132.736 163.379 134.776V136.936H159.635V134.524C159.635 132.868 158.951 132.04 157.583 132.04C156.215 132.04 155.531 132.868 155.531 134.524V148.312C155.531 149.944 156.215 150.76 157.583 150.76C158.951 150.76 159.635 149.944 159.635 148.312V143.38H157.655V139.78H163.379V148.024C163.379 150.064 162.875 151.636 161.867 152.74C160.859 153.82 159.395 154.36 157.475 154.36ZM168.981 128.8H174.345L178.449 154H174.489L173.769 148.996V149.068H169.269L168.549 154H164.877L168.981 128.8ZM173.301 145.648L171.537 133.192H171.465L169.737 145.648H173.301Z" fill="white"/>
</svg>
